<mxfile host="app.diagrams.net" modified="2023-10-11T17:44:53.785Z" agent="Mozilla/5.0 (Windows NT 10.0; Win64; x64) AppleWebKit/537.36 (KHTML, like Gecko) Chrome/118.0.0.0 Safari/537.36" etag="ebCBjQyIH5_V6so0mCV2" version="22.0.4" type="github">
  <diagram id="R2lEEEUBdFMjLlhIrx00" name="Page-1">
    <mxGraphModel dx="1050" dy="574" grid="1" gridSize="10" guides="1" tooltips="1" connect="1" arrows="1" fold="1" page="1" pageScale="1" pageWidth="850" pageHeight="1100" math="0" shadow="0" extFonts="Permanent Marker^https://fonts.googleapis.com/css?family=Permanent+Marker">
      <root>
        <mxCell id="0" />
        <mxCell id="1" parent="0" />
        <mxCell id="tdtAZZe7iDzmqnhGQD1Q-1" value="Autores" style="swimlane;childLayout=stackLayout;horizontal=1;startSize=50;horizontalStack=0;rounded=1;fontSize=14;fontStyle=0;strokeWidth=2;resizeParent=0;resizeLast=1;shadow=0;dashed=0;align=center;arcSize=4;whiteSpace=wrap;html=1;" vertex="1" parent="1">
          <mxGeometry x="170" y="380" width="160" height="120" as="geometry" />
        </mxCell>
        <mxCell id="tdtAZZe7iDzmqnhGQD1Q-2" value="+id_autor&lt;br&gt;+nombre" style="align=left;strokeColor=none;fillColor=none;spacingLeft=4;fontSize=12;verticalAlign=top;resizable=0;rotatable=0;part=1;html=1;" vertex="1" parent="tdtAZZe7iDzmqnhGQD1Q-1">
          <mxGeometry y="50" width="160" height="70" as="geometry" />
        </mxCell>
        <mxCell id="tdtAZZe7iDzmqnhGQD1Q-3" value="Escribir" style="shape=rhombus;perimeter=rhombusPerimeter;whiteSpace=wrap;html=1;align=center;" vertex="1" parent="1">
          <mxGeometry x="350" y="240" width="120" height="60" as="geometry" />
        </mxCell>
        <mxCell id="tdtAZZe7iDzmqnhGQD1Q-4" value="Libros" style="swimlane;childLayout=stackLayout;horizontal=1;startSize=50;horizontalStack=0;rounded=1;fontSize=14;fontStyle=0;strokeWidth=2;resizeParent=0;resizeLast=1;shadow=0;dashed=0;align=center;arcSize=4;whiteSpace=wrap;html=1;" vertex="1" parent="1">
          <mxGeometry x="530" y="50" width="160" height="120" as="geometry" />
        </mxCell>
        <mxCell id="tdtAZZe7iDzmqnhGQD1Q-5" value="+isbn&lt;br&gt;+editorial&lt;br&gt;+titulo&lt;br&gt;+ano_escritura" style="align=left;strokeColor=none;fillColor=none;spacingLeft=4;fontSize=12;verticalAlign=top;resizable=0;rotatable=0;part=1;html=1;" vertex="1" parent="tdtAZZe7iDzmqnhGQD1Q-4">
          <mxGeometry y="50" width="160" height="70" as="geometry" />
        </mxCell>
        <mxCell id="tdtAZZe7iDzmqnhGQD1Q-6" value="Tener" style="shape=rhombus;perimeter=rhombusPerimeter;whiteSpace=wrap;html=1;align=center;" vertex="1" parent="1">
          <mxGeometry x="800" y="60" width="120" height="60" as="geometry" />
        </mxCell>
        <mxCell id="tdtAZZe7iDzmqnhGQD1Q-7" value="Volumenes" style="swimlane;childLayout=stackLayout;horizontal=1;startSize=50;horizontalStack=0;rounded=1;fontSize=14;fontStyle=0;strokeWidth=2;resizeParent=0;resizeLast=1;shadow=0;dashed=0;align=center;arcSize=4;whiteSpace=wrap;html=1;" vertex="1" parent="1">
          <mxGeometry x="1060" y="10" width="160" height="120" as="geometry" />
        </mxCell>
        <mxCell id="tdtAZZe7iDzmqnhGQD1Q-8" value="+id_volumen&lt;br&gt;+deteriorado" style="align=left;strokeColor=none;fillColor=none;spacingLeft=4;fontSize=12;verticalAlign=top;resizable=0;rotatable=0;part=1;html=1;" vertex="1" parent="tdtAZZe7iDzmqnhGQD1Q-7">
          <mxGeometry y="50" width="160" height="70" as="geometry" />
        </mxCell>
        <mxCell id="tdtAZZe7iDzmqnhGQD1Q-9" value="Prestar" style="shape=rhombus;perimeter=rhombusPerimeter;whiteSpace=wrap;html=1;align=center;" vertex="1" parent="1">
          <mxGeometry x="1260" y="90" width="120" height="60" as="geometry" />
        </mxCell>
        <mxCell id="tdtAZZe7iDzmqnhGQD1Q-10" value="Prestamos" style="swimlane;childLayout=stackLayout;horizontal=1;startSize=50;horizontalStack=0;rounded=1;fontSize=14;fontStyle=0;strokeWidth=2;resizeParent=0;resizeLast=1;shadow=0;dashed=0;align=center;arcSize=4;whiteSpace=wrap;html=1;" vertex="1" parent="1">
          <mxGeometry x="1420" y="120" width="160" height="120" as="geometry" />
        </mxCell>
        <mxCell id="tdtAZZe7iDzmqnhGQD1Q-11" value="+id_prestamo&lt;br&gt;+fecha_real&lt;br&gt;+fecha-prestamo" style="align=left;strokeColor=none;fillColor=none;spacingLeft=4;fontSize=12;verticalAlign=top;resizable=0;rotatable=0;part=1;html=1;" vertex="1" parent="tdtAZZe7iDzmqnhGQD1Q-10">
          <mxGeometry y="50" width="160" height="70" as="geometry" />
        </mxCell>
        <mxCell id="tdtAZZe7iDzmqnhGQD1Q-12" value="Hacer" style="shape=rhombus;perimeter=rhombusPerimeter;whiteSpace=wrap;html=1;align=center;" vertex="1" parent="1">
          <mxGeometry x="1600" y="310" width="120" height="60" as="geometry" />
        </mxCell>
        <mxCell id="tdtAZZe7iDzmqnhGQD1Q-13" value="Personas" style="swimlane;childLayout=stackLayout;horizontal=1;startSize=50;horizontalStack=0;rounded=1;fontSize=14;fontStyle=0;strokeWidth=2;resizeParent=0;resizeLast=1;shadow=0;dashed=0;align=center;arcSize=4;whiteSpace=wrap;html=1;" vertex="1" parent="1">
          <mxGeometry x="1780" y="390" width="160" height="160" as="geometry" />
        </mxCell>
        <mxCell id="tdtAZZe7iDzmqnhGQD1Q-14" value="+dni&lt;br&gt;+codigo_socio&lt;br&gt;+nombre&lt;br&gt;+apellido&lt;br&gt;+direccion&lt;br&gt;+telefono" style="align=left;strokeColor=none;fillColor=none;spacingLeft=4;fontSize=12;verticalAlign=top;resizable=0;rotatable=0;part=1;html=1;" vertex="1" parent="tdtAZZe7iDzmqnhGQD1Q-13">
          <mxGeometry y="50" width="160" height="110" as="geometry" />
        </mxCell>
      </root>
    </mxGraphModel>
  </diagram>
</mxfile>
